<?xml version="1.0" encoding="UTF-8"?>
<svg id="Capa_2" data-name="Capa 2" xmlns="http://www.w3.org/2000/svg" viewBox="0 0 599.85 142.81">
  <defs>
    <style>
      .cls-1 {
        fill: #f3f3f1;
        stroke-width: 0px;
      }
    </style>
  </defs>
  <g id="Capa_1-2" data-name="Capa 1">
    <g>
      <g>
        <g>
          <path class="cls-1" d="m273.82,76.08v15.5h-49.31V0h15.5v76.08h33.81Z"/>
          <path class="cls-1" d="m281.01,68.19v-35.93h14.65v34.38c0,4.04,1.17,7.16,3.52,9.37,2.35,2.21,5.35,3.31,9.02,3.31,3.85,0,6.9-1.17,9.16-3.52,2.25-2.35,3.38-5.59,3.38-9.72v-33.81h14.51v59.32h-14.51v-6.06c-3.57,5.26-8.92,7.89-16.06,7.89s-12.87-2.18-17.19-6.55c-4.32-4.37-6.48-10.59-6.48-18.67Z"/>
          <path class="cls-1" d="m393.3,69.18h15.64c-1.69,7.33-5.38,13.2-11.06,17.61-5.68,4.42-12.24,6.62-19.65,6.62-8.45,0-15.57-3.03-21.34-9.09s-8.67-13.55-8.67-22.47,3.03-16.27,9.09-22.33c6.06-6.06,13.27-9.09,21.63-9.09,7.61,0,14.28,2.44,20.01,7.33,5.73,4.88,9.2,11.22,10.43,19.02h-15.22c-1.13-3.57-3.05-6.34-5.78-8.31-2.73-1.97-5.87-2.96-9.44-2.96-4.32,0-8.01,1.57-11.06,4.72-3.05,3.15-4.58,7.02-4.58,11.62s1.53,8.59,4.58,11.69c3.05,3.1,6.74,4.65,11.06,4.65,6.86,0,11.65-3,14.37-9.02Z"/>
          <path class="cls-1" d="m448.95,30.43c9.3,0,16.81,3.33,22.54,10,5.73,6.67,8.31,14.89,7.75,24.66h-46.07c.37,4.32,2.04,7.8,5,10.43,2.96,2.63,6.6,3.95,10.92,3.95,5.54,0,9.91-2.35,13.1-7.04h15.64c-2.16,6.2-5.85,11.25-11.06,15.15-5.21,3.9-11.11,5.85-17.68,5.85-8.92,0-16.23-2.98-21.91-8.95-5.68-5.96-8.52-13.46-8.52-22.47s2.96-16.29,8.88-22.4c5.92-6.1,13.05-9.16,21.42-9.16Zm-14.65,24.8h29.45c-1.13-3.1-2.96-5.71-5.49-7.82-2.54-2.11-5.59-3.17-9.16-3.17s-6.53,1.04-9.16,3.1c-2.63,2.07-4.51,4.7-5.64,7.89Z"/>
          <path class="cls-1" d="m526.44,32.26h4.93v14.51h-4.09c-6.29,0-11.27,1.76-14.93,5.28-3.66,3.52-5.5,9.09-5.5,16.7v22.82h-14.51v-59.32h14.09v10.71c4.7-7.14,11.36-10.71,20.01-10.71Z"/>
          <path class="cls-1" d="m547.08,39.45c6.06-6.01,13.36-9.02,21.91-9.02s15.83,3.01,21.84,9.02c6.01,6.01,9.02,13.38,9.02,22.12s-3.01,16.34-9.02,22.54c-6.01,6.2-13.29,9.3-21.84,9.3s-15.85-3.1-21.91-9.3c-6.06-6.2-9.09-13.71-9.09-22.54s3.03-16.11,9.09-22.12Zm10.64,33.96c3.1,3.29,6.86,4.93,11.27,4.93s8.17-1.64,11.27-4.93c3.1-3.29,4.65-7.23,4.65-11.83s-1.55-8.31-4.65-11.41-6.86-4.65-11.27-4.65-8.17,1.55-11.27,4.65-4.65,6.9-4.65,11.41,1.55,8.55,4.65,11.83Z"/>
        </g>
        <g>
          <path class="cls-1" d="m255.66,131.05h5.79c0,3.15-1.12,5.86-3.38,8.13s-4.95,3.4-8.1,3.4c-3.49,0-6.38-1.35-8.66-4.05-2.29,2.7-5.19,4.05-8.72,4.05-3.34,0-6.09-1.12-8.27-3.38s-3.26-5.04-3.26-8.38c0-3.71,1.5-6.75,4.5-9.11-1.88-1.8-2.81-4.11-2.81-6.92s.96-5.01,2.9-6.92c1.93-1.91,4.25-2.87,6.95-2.87,2.55,0,4.76.88,6.64,2.64,1.88,1.76,2.91,3.9,3.09,6.41h-5.85c-.19-.94-.65-1.72-1.38-2.33-.73-.62-1.57-.93-2.5-.93-1.12,0-2.06.38-2.81,1.12-.75.75-1.14,1.69-1.18,2.81-.04,1.2.36,2.22,1.18,3.07.82.84,1.89,1.27,3.21,1.27h23.63v5.79h-12.32v6.19c0,1.69.53,3.07,1.6,4.13,1.07,1.07,2.43,1.6,4.08,1.6s2.95-.55,4.02-1.66c1.07-1.11,1.62-2.46,1.66-4.08Zm-23.06,5.74c1.61,0,2.99-.54,4.13-1.63,1.14-1.09,1.72-2.46,1.72-4.11v-6.19h-5.91c-1.61,0-2.96.56-4.05,1.69s-1.63,2.53-1.63,4.22.54,3.11,1.63,4.28c1.09,1.16,2.46,1.74,4.11,1.74Z"/>
          <path class="cls-1" d="m292.78,118.28h5.85v23.79h-5.85v-2.81c-.3.83-1.12,1.62-2.48,2.39-1.35.77-2.96,1.15-4.84,1.15-3.23,0-5.97-1.13-8.24-3.4-2.27-2.27-3.42-5.26-3.46-8.97,0-3.67,1.1-6.71,3.29-9.11,2.19-2.4,4.98-3.62,8.35-3.66,1.65-.04,3.13.24,4.44.82,1.31.58,2.29,1.36,2.93,2.33v-2.53Zm-6.58,18.62c1.8,0,3.32-.62,4.56-1.86s1.86-2.7,1.86-4.39v-.79c0-1.8-.61-3.3-1.83-4.5-1.22-1.2-2.75-1.8-4.58-1.8s-3.37.63-4.58,1.88c-1.22,1.26-1.83,2.84-1.83,4.75s.63,3.6,1.88,4.84c1.26,1.24,2.76,1.86,4.53,1.86Z"/>
          <path class="cls-1" d="m313.93,137.8c.86,0,1.55-.22,2.05-.67.51-.45.76-1.01.76-1.69,0-.52-.26-.98-.79-1.38s-1.04-.67-1.55-.84c-.51-.17-1.32-.42-2.45-.76-5.29-1.42-7.93-3.94-7.93-7.54,0-2.21.89-3.97,2.67-5.29s3.85-1.97,6.22-1.97c2.81,0,5.01.69,6.58,2.08s2.55,3.21,2.92,5.46h-5.91c-.08-.75-.45-1.39-1.12-1.91-.67-.53-1.54-.79-2.59-.79-.79,0-1.44.19-1.97.56-.53.38-.79.83-.79,1.35,0,.67.45,1.28,1.35,1.83.9.54,2.46,1.13,4.67,1.77,4.39,1.35,6.58,3.71,6.58,7.09,0,2.36-.87,4.24-2.62,5.62-1.74,1.39-3.93,2.08-6.55,2.08-2.92,0-5.16-.77-6.69-2.31-1.54-1.54-2.42-3.32-2.64-5.34h5.91c.56,1.76,1.86,2.64,3.88,2.64Z"/>
          <path class="cls-1" d="m330.22,121.26c2.42-2.4,5.33-3.6,8.75-3.6s6.32,1.2,8.72,3.6c2.4,2.4,3.6,5.34,3.6,8.83s-1.2,6.53-3.6,9c-2.4,2.48-5.31,3.71-8.72,3.71s-6.33-1.24-8.75-3.71c-2.42-2.47-3.63-5.47-3.63-9s1.21-6.43,3.63-8.83Zm4.25,13.56c1.24,1.31,2.74,1.97,4.5,1.97s3.26-.66,4.5-1.97,1.86-2.89,1.86-4.73-.62-3.32-1.86-4.56c-1.24-1.24-2.74-1.86-4.5-1.86s-3.26.62-4.5,1.86c-1.24,1.24-1.86,2.76-1.86,4.56s.62,3.41,1.86,4.73Z"/>
          <path class="cls-1" d="m373.05,133.13h6.24c-.68,2.92-2.15,5.27-4.42,7.03-2.27,1.76-4.88,2.64-7.85,2.64-3.38,0-6.22-1.21-8.52-3.63-2.31-2.42-3.46-5.41-3.46-8.97s1.21-6.5,3.63-8.92,5.3-3.63,8.63-3.63c3.04,0,5.7.98,7.99,2.93,2.29,1.95,3.67,4.48,4.16,7.59h-6.08c-.45-1.42-1.22-2.53-2.31-3.32-1.09-.79-2.34-1.18-3.77-1.18-1.73,0-3.2.63-4.42,1.88-1.22,1.26-1.83,2.8-1.83,4.64s.61,3.43,1.83,4.67c1.22,1.24,2.69,1.86,4.42,1.86,2.74,0,4.65-1.2,5.74-3.6Z"/>
          <path class="cls-1" d="m391.16,118.39v23.68h-5.85v-17.89h-2.25v-5.79h8.1Zm-3.43-3.54c-1.12,0-2.04-.37-2.76-1.1-.71-.73-1.07-1.64-1.07-2.73s.37-1.94,1.1-2.67,1.64-1.1,2.73-1.1c1.01,0,1.89.38,2.64,1.12.75.75,1.12,1.63,1.12,2.64s-.37,1.95-1.1,2.7c-.73.75-1.62,1.12-2.67,1.12Z"/>
          <path class="cls-1" d="m415.69,118.28h5.85v23.79h-5.85v-2.81c-.3.83-1.12,1.62-2.48,2.39-1.35.77-2.96,1.15-4.84,1.15-3.23,0-5.97-1.13-8.24-3.4-2.27-2.27-3.42-5.26-3.46-8.97,0-3.67,1.1-6.71,3.29-9.11,2.19-2.4,4.98-3.62,8.35-3.66,1.65-.04,3.13.24,4.44.82,1.31.58,2.29,1.36,2.93,2.33v-2.53Zm-6.58,18.62c1.8,0,3.32-.62,4.56-1.86s1.86-2.7,1.86-4.39v-.79c0-1.8-.61-3.3-1.83-4.5-1.22-1.2-2.75-1.8-4.58-1.8s-3.37.63-4.58,1.88c-1.22,1.26-1.83,2.84-1.83,4.75s.63,3.6,1.88,4.84c1.26,1.24,2.76,1.86,4.53,1.86Z"/>
          <path class="cls-1" d="m445.73,105.51h5.85v36.56h-5.85v-2.81c-.3.83-1.12,1.62-2.48,2.39-1.35.77-2.96,1.15-4.84,1.15-3.19,0-5.93-1.16-8.21-3.49-2.29-2.33-3.45-5.29-3.49-8.89,0-3.71,1.13-6.76,3.4-9.14,2.27-2.38,5.05-3.59,8.35-3.63,3.56-.04,5.98.99,7.26,3.09v-15.24Zm-6.58,31.39c1.72,0,3.23-.58,4.5-1.74,1.27-1.16,1.91-2.57,1.91-4.22v-.96c0-1.8-.62-3.31-1.86-4.53-1.24-1.22-2.76-1.83-4.56-1.83s-3.26.62-4.5,1.86c-1.24,1.24-1.86,2.81-1.86,4.72s.62,3.55,1.86,4.81c1.24,1.26,2.74,1.88,4.5,1.88Z"/>
          <path class="cls-1" d="m460.49,121.26c2.42-2.4,5.33-3.6,8.75-3.6s6.32,1.2,8.72,3.6c2.4,2.4,3.6,5.34,3.6,8.83s-1.2,6.53-3.6,9c-2.4,2.48-5.31,3.71-8.72,3.71s-6.33-1.24-8.75-3.71c-2.42-2.47-3.63-5.47-3.63-9s1.21-6.43,3.63-8.83Zm4.25,13.56c1.24,1.31,2.74,1.97,4.5,1.97s3.26-.66,4.5-1.97,1.86-2.89,1.86-4.73-.62-3.32-1.86-4.56c-1.24-1.24-2.74-1.86-4.5-1.86s-3.26.62-4.5,1.86c-1.24,1.24-1.86,2.76-1.86,4.56s.62,3.41,1.86,4.73Z"/>
          <path class="cls-1" d="m495.11,137.8c.86,0,1.55-.22,2.05-.67.51-.45.76-1.01.76-1.69,0-.52-.26-.98-.79-1.38s-1.04-.67-1.55-.84c-.51-.17-1.32-.42-2.45-.76-5.29-1.42-7.93-3.94-7.93-7.54,0-2.21.89-3.97,2.67-5.29s3.85-1.97,6.22-1.97c2.81,0,5.01.69,6.58,2.08s2.55,3.21,2.92,5.46h-5.91c-.08-.75-.45-1.39-1.12-1.91-.67-.53-1.54-.79-2.59-.79-.79,0-1.44.19-1.97.56-.53.38-.79.83-.79,1.35,0,.67.45,1.28,1.35,1.83.9.54,2.46,1.13,4.67,1.77,4.39,1.35,6.58,3.71,6.58,7.09,0,2.36-.87,4.24-2.62,5.62-1.74,1.39-3.93,2.08-6.55,2.08-2.92,0-5.16-.77-6.69-2.31-1.54-1.54-2.42-3.32-2.64-5.34h5.91c.56,1.76,1.86,2.64,3.88,2.64Z"/>
        </g>
      </g>
      <g>
        <path class="cls-1" d="m38.7,38.59H10.57c-5.84,0-10.57,4.73-10.57,10.57v35.34l19.41,11.68v45.65h38.7v-45.65h.01l-19.42-11.68v-45.9Z"/>
        <path class="cls-1" d="m97.77,84.49V20.2h-28.14c-5.83,0-10.56,4.73-10.56,10.56v53.72l19.42,11.68h0v45.9h38.7v-45.9h0l-19.42-11.68Z"/>
        <path class="cls-1" d="m156.84,84.49h.14V.18h-28.11c-5.85,0-10.59,4.74-10.59,10.59v73.72h0l19.28,11.68v45.9h38.7v-45.9l-19.42-11.68Z"/>
      </g>
    </g>
  </g>
</svg>